<svg width="202" height="202" viewBox="0 0 202 202" fill="none" xmlns="http://www.w3.org/2000/svg">
<path fill-rule="evenodd" clip-rule="evenodd" d="M20 0C8.9543 0 0 8.9543 0 20V182C0 193.046 8.9543 202 20 202H182C193.046 202 202 193.046 202 182V20C202 8.9543 193.046 0 182 0H20ZM69.9449 120.222L91.232 156.786L100.31 163.65C101.369 164.451 102.828 164.461 103.897 163.674L112.143 157.608L133.755 120.142C134.173 119.416 134.269 118.548 134.02 117.748L129.795 104.218L126.522 106.074C125.835 106.464 125.329 107.109 125.115 107.869L119.882 126.395L121.301 105.335C121.349 104.615 121.656 103.936 122.164 103.424L129.795 95.7307H133.724C134.176 95.7307 134.623 95.8331 135.03 96.0303L139.609 98.2459C140.591 98.7212 141.754 98.6257 142.645 97.9966L143.277 97.5507C144.937 96.3794 144.977 93.9319 143.357 92.7067L141.672 91.4329C141.361 91.1974 141.006 91.0249 140.629 90.9253L129.795 88.0645C134.738 81.7911 142.834 76.8887 147.934 88.0645C148.668 89.6707 149.339 91.609 149.93 93.9231C150.186 94.9279 150.428 96.0037 150.653 97.1538C151.851 103.279 152.577 111.515 152.608 122.402C152.611 123.51 153.217 124.533 154.193 125.058L155.12 125.557C156.083 126.074 157.25 126.028 158.168 125.435L162.689 122.518C163.197 122.19 163.595 121.719 163.824 121.159C168.597 109.544 173.155 93.4035 172.996 78.5769C172.972 76.3882 172.846 74.2281 172.602 72.1154C170.662 55.2868 161.278 41.4672 137.127 40.151C130.7 40.5161 115.293 46.722 102.909 66.435C84.66 42.9984 68.6918 38.417 62.9889 39.0558C44.7722 42.8186 35.9298 53.4888 32.6152 66.435C31.8142 69.5635 31.336 72.8249 31.1263 76.1538C30.1063 92.3465 35.4393 110.138 40.8781 122.005C41.1275 122.55 41.5383 123 42.0528 123.306L45.8229 125.552C46.7042 126.077 47.7927 126.116 48.7087 125.654L49.9566 125.025C50.956 124.521 51.5904 123.5 51.6124 122.381C51.8905 108.26 53.2783 98.636 55.2912 92.3077C56.3177 89.0805 57.5068 86.7105 58.7941 85.0385C63.8714 78.444 70.477 82.7077 74.6663 88.0645L63.5702 90.9263C63.1864 91.0253 62.8261 91.1993 62.51 91.4383L60.8326 92.7067C59.2123 93.9319 59.2525 96.3794 60.9122 97.5507L61.671 98.0862C62.4939 98.6669 63.5533 98.796 64.4915 98.4298L70.8815 95.936C71.2291 95.8003 71.599 95.7307 71.9722 95.7307H74.6663L83.6757 103.341C84.3358 103.898 84.7234 104.714 84.7393 105.578L85.1217 126.395L79.3632 107.818C79.1372 107.088 78.6417 106.473 77.9777 106.096L74.6663 104.218L69.7215 117.679C69.4133 118.517 69.4952 119.45 69.9449 120.222ZM91.232 146.108L102.095 153.775L114.315 146.108H102.774H91.232Z" fill="#FF842D"/>
</svg>
